<svg width="573" height="159" viewBox="0 0 573 159" fill="none" xmlns="http://www.w3.org/2000/svg">
<rect width="573" height="159" fill="white"/>
<path d="M83.7122 31.4881C98.5668 36.3599 111.671 45.0565 121.933 56.3855C123.624 54.8719 125.628 53.9845 127.786 53.9845C128.42 53.9845 129.038 54.0762 129.64 54.2218C133.439 43.6187 134.789 32.196 133.054 20.5819C133.044 20.5101 133.024 20.4423 133.014 20.3705C126.081 14.1207 118.038 9.08341 109.216 5.57764C99.7952 12.5712 91.1385 21.2838 83.7122 31.4881Z" fill="#FF5722"/>
<path d="M47.7949 27.4898C50.511 27.2346 53.251 27.0571 56.0348 27.0571C63.0903 27.0571 69.9443 27.8946 76.5211 29.4501C84.1229 19.1043 92.999 10.3079 102.643 3.30237C95.4698 1.16062 87.87 0 79.999 0C70.8277 0 62.0274 1.5774 53.8353 4.44504C49.4341 10.4037 45.7967 16.9486 42.9829 23.9162C45.0589 24.6401 46.7539 25.8745 47.7949 27.4898Z" fill="#FF5722"/>
<path d="M38.9946 41.3255C38.6236 41.4133 38.2547 41.4851 37.8878 41.5449C37.0064 46.5423 36.5198 51.6753 36.5198 56.926C36.5198 72.0479 40.3646 86.2525 47.061 98.6942C48.5048 98.5067 50.0044 98.5067 51.52 98.6743C52.3257 83.0538 56.2183 66.871 63.5709 51.2406C65.926 46.2312 68.5623 41.4691 71.422 36.9443C65.0585 35.4945 58.4339 34.7288 51.6277 34.7288C50.4093 34.7288 49.2068 34.7986 48.0003 34.8524C46.4827 37.8138 43.1923 40.3264 38.9946 41.3255Z" fill="#FF5722"/>
<path d="M78.6708 38.9563C75.9268 43.3435 73.3862 47.9501 71.1109 52.79C63.6287 68.6956 59.742 85.1675 59.0381 101.041C61.9396 102.619 64.2768 104.802 65.918 107.293C87.5469 102.686 105.762 91.0065 117.865 75.5017C117.244 73.5873 116.891 71.4675 116.891 69.23C116.891 67.4173 117.131 65.6843 117.543 64.073C107.13 52.5746 93.7947 43.7902 78.6708 38.9563Z" fill="#FF5722"/>
<path d="M35.0861 107.189C36.0233 104.972 37.5309 103.145 39.3975 101.739C32.7369 89.3175 28.932 75.1348 28.932 60.0528C28.932 53.5438 29.7097 47.2262 31.0558 41.122C29.287 40.5517 27.7794 39.6184 26.6905 38.396C20.1137 40.3184 13.84 42.9467 7.98709 46.2451C3.38651 56.2818 0.800049 67.4373 0.800049 79.201C0.800049 85.9613 1.65157 92.5201 3.24492 98.7819C12.6615 103.889 23.2805 107.311 34.5556 108.707C34.7012 108.196 34.8747 107.69 35.0861 107.189Z" fill="#FF5722"/>
<path d="M127.786 84.4716C126.22 84.4716 124.733 84.003 123.389 83.1694C110.851 99.5497 91.5414 111.778 68.5744 116.056C68.5385 117.701 68.2215 119.342 67.5574 120.915C67.2283 121.691 66.8156 122.409 66.3589 123.093C81.6443 136.641 101.63 144.985 123.584 145.32C129.85 141.182 135.489 136.177 140.335 130.477C140.507 128.248 140.626 126.002 140.626 123.727C140.626 109.339 137.14 95.7906 131.07 83.7677C130.033 84.2224 128.93 84.4716 127.786 84.4716Z" fill="#FF5722"/>
<path d="M61.0244 128.154C63.222 138.981 67.0748 149.091 72.4511 158.031C74.9378 158.264 77.4525 158.4 80.0011 158.4C93.9524 158.4 107.05 154.781 118.435 148.449C118.074 148.453 117.721 148.483 117.362 148.483C95.9386 148.481 76.3218 140.833 61.0244 128.154Z" fill="#FF5722"/>
<path d="M45.4457 127.961C39.856 125.6 35.9514 121.099 34.5854 116.183C23.9484 114.257 13.9934 110.508 5.20508 105.249C14.4082 131.674 37.2077 151.721 65.226 157.01C60.1767 148.754 56.4656 139.465 54.1503 129.536C51.3206 129.674 48.3373 129.183 45.4457 127.961Z" fill="#FF5722"/>
<path d="M34.779 23.6212C35.5228 23.4437 36.2627 23.328 36.9926 23.2562C39.5551 17.6865 42.656 12.4179 46.2655 7.53809C31.9134 14.3063 19.9283 25.2544 11.8718 38.8189C16.0237 36.4398 20.393 34.4057 24.9277 32.7087C25.4841 28.6824 29.3867 24.9054 34.779 23.6212Z" fill="#FF5722"/>
<path d="M159.2 79.201C159.2 58.0348 150.88 38.8228 137.354 24.6143C137.651 26.0082 137.912 27.4181 138.126 28.8459C139.671 39.1997 138.762 49.404 135.856 59.0119C137.605 61.716 138.682 65.2936 138.682 69.2301C138.682 72.6023 137.89 75.7092 136.564 78.2339C141.97 89.7164 145.029 102.523 145.029 116.058C145.029 119.093 144.86 122.086 144.563 125.045C153.766 112.103 159.2 96.2912 159.2 79.201Z" fill="#FF5722"/>
<path d="M48.2528 121.31C52.9284 123.286 58.091 121.643 59.7838 117.639C61.4765 113.635 59.0584 108.786 54.3828 106.81C49.7071 104.833 44.5445 106.476 42.8518 110.48C41.159 114.485 43.5771 119.333 48.2528 121.31Z" fill="#FF5722"/>
<path d="M127.786 75.6874C130.334 75.6874 132.4 72.7955 132.4 69.2282C132.4 65.6609 130.334 62.769 127.786 62.769C125.237 62.769 123.171 65.6609 123.171 69.2282C123.171 72.7955 125.237 75.6874 127.786 75.6874Z" fill="#FF5722"/>
<path d="M37.7821 36.2383C40.5654 35.5747 42.4195 33.3503 41.9235 31.2698C41.4275 29.1894 38.7692 28.0408 35.986 28.7043C33.2028 29.3679 31.3486 31.5923 31.8446 33.6727C32.3406 35.7532 34.9989 36.9018 37.7821 36.2383Z" fill="#FF5722"/>
<path d="M182.523 101V54.4545H201.75C205.235 54.4545 208.242 55.1364 210.773 56.5C213.318 57.8485 215.28 59.7348 216.659 62.1591C218.038 64.5682 218.727 67.3712 218.727 70.5682C218.727 73.7803 218.023 76.5909 216.614 79C215.22 81.3939 213.227 83.25 210.636 84.5682C208.045 85.8864 204.97 86.5455 201.409 86.5455H189.545V77.6818H199.318C201.015 77.6818 202.432 77.3864 203.568 76.7955C204.72 76.2045 205.591 75.3788 206.182 74.3182C206.773 73.2424 207.068 71.9924 207.068 70.5682C207.068 69.1288 206.773 67.8864 206.182 66.8409C205.591 65.7803 204.72 64.9621 203.568 64.3864C202.417 63.8106 201 63.5227 199.318 63.5227H193.773V101H182.523ZM224.273 101V66.0909H235.068V72.4545H235.432C236.068 70.1515 237.106 68.4394 238.545 67.3182C239.985 66.1818 241.659 65.6136 243.568 65.6136C244.083 65.6136 244.614 65.6515 245.159 65.7273C245.705 65.7879 246.212 65.8864 246.682 66.0227V75.6818C246.152 75.5 245.455 75.3561 244.591 75.25C243.742 75.1439 242.985 75.0909 242.318 75.0909C241 75.0909 239.811 75.3864 238.75 75.9773C237.705 76.553 236.879 77.3636 236.273 78.4091C235.682 79.4394 235.386 80.6515 235.386 82.0455V101H224.273ZM265.693 101.659C262.027 101.659 258.875 100.909 256.239 99.4091C253.617 97.8939 251.595 95.7879 250.17 93.0909C248.761 90.3788 248.057 87.2348 248.057 83.6591C248.057 80.0682 248.761 76.9242 250.17 74.2273C251.595 71.5152 253.617 69.4091 256.239 67.9091C258.875 66.3939 262.027 65.6364 265.693 65.6364C269.36 65.6364 272.504 66.3939 275.125 67.9091C277.761 69.4091 279.784 71.5152 281.193 74.2273C282.617 76.9242 283.33 80.0682 283.33 83.6591C283.33 87.2348 282.617 90.3788 281.193 93.0909C279.784 95.7879 277.761 97.8939 275.125 99.4091C272.504 100.909 269.36 101.659 265.693 101.659ZM265.761 93.2727C267.095 93.2727 268.223 92.8636 269.148 92.0455C270.072 91.2273 270.777 90.0909 271.261 88.6364C271.761 87.1818 272.011 85.5 272.011 83.5909C272.011 81.6515 271.761 79.9545 271.261 78.5C270.777 77.0455 270.072 75.9091 269.148 75.0909C268.223 74.2727 267.095 73.8636 265.761 73.8636C264.383 73.8636 263.216 74.2727 262.261 75.0909C261.322 75.9091 260.602 77.0455 260.102 78.5C259.617 79.9545 259.375 81.6515 259.375 83.5909C259.375 85.5 259.617 87.1818 260.102 88.6364C260.602 90.0909 261.322 91.2273 262.261 92.0455C263.216 92.8636 264.383 93.2727 265.761 93.2727ZM289.023 101V66.0909H299.591V72.5H299.977C300.705 70.3788 301.932 68.7045 303.659 67.4773C305.386 66.25 307.447 65.6364 309.841 65.6364C312.265 65.6364 314.341 66.2576 316.068 67.5C317.795 68.7424 318.894 70.4091 319.364 72.5H319.727C320.379 70.4242 321.652 68.7652 323.545 67.5227C325.439 66.2652 327.674 65.6364 330.25 65.6364C333.553 65.6364 336.235 66.697 338.295 68.8182C340.356 70.9242 341.386 73.8182 341.386 77.5V101H330.273V80.0455C330.273 78.303 329.826 76.9773 328.932 76.0682C328.038 75.1439 326.879 74.6818 325.455 74.6818C323.924 74.6818 322.72 75.1818 321.841 76.1818C320.977 77.1667 320.545 78.4924 320.545 80.1591V101H309.864V79.9318C309.864 78.3106 309.424 77.0303 308.545 76.0909C307.667 75.1515 306.508 74.6818 305.068 74.6818C304.098 74.6818 303.242 74.9167 302.5 75.3864C301.758 75.8409 301.174 76.4924 300.75 77.3409C300.341 78.1894 300.136 79.1894 300.136 80.3409V101H289.023ZM348.273 114.091V66.0909H359.273V72.0682H359.614C360.068 71.0076 360.712 69.9848 361.545 69C362.394 68.0152 363.47 67.2121 364.773 66.5909C366.091 65.9545 367.667 65.6364 369.5 65.6364C371.924 65.6364 374.189 66.2727 376.295 67.5455C378.417 68.8182 380.129 70.7803 381.432 73.4318C382.735 76.0833 383.386 79.4621 383.386 83.5682C383.386 87.5227 382.758 90.8333 381.5 93.5C380.258 96.1667 378.576 98.1667 376.455 99.5C374.348 100.833 372.008 101.5 369.432 101.5C367.674 101.5 366.152 101.212 364.864 100.636C363.576 100.061 362.492 99.303 361.614 98.3636C360.75 97.4242 360.083 96.4167 359.614 95.3409H359.386V114.091H348.273ZM359.159 83.5455C359.159 85.4242 359.409 87.0606 359.909 88.4545C360.424 89.8485 361.159 90.9318 362.114 91.7045C363.083 92.4621 364.242 92.8409 365.591 92.8409C366.955 92.8409 368.114 92.4621 369.068 91.7045C370.023 90.9318 370.742 89.8485 371.227 88.4545C371.727 87.0606 371.977 85.4242 371.977 83.5455C371.977 81.6667 371.727 80.0379 371.227 78.6591C370.742 77.2803 370.023 76.2121 369.068 75.4545C368.129 74.697 366.97 74.3182 365.591 74.3182C364.227 74.3182 363.068 74.6894 362.114 75.4318C361.159 76.1742 360.424 77.2348 359.909 78.6136C359.409 79.9924 359.159 81.6364 359.159 83.5455ZM408.915 66.0909V74.2727H386.892V66.0909H408.915ZM391.506 57.7273H402.619V90.0227C402.619 90.7045 402.725 91.2576 402.938 91.6818C403.165 92.0909 403.491 92.3864 403.915 92.5682C404.339 92.7348 404.847 92.8182 405.438 92.8182C405.862 92.8182 406.309 92.7803 406.778 92.7045C407.263 92.6136 407.627 92.5379 407.869 92.4773L409.551 100.5C409.021 100.652 408.271 100.841 407.301 101.068C406.347 101.295 405.203 101.439 403.869 101.5C401.263 101.621 399.028 101.318 397.165 100.591C395.316 99.8485 393.9 98.697 392.915 97.1364C391.945 95.5758 391.475 93.6136 391.506 91.25V57.7273ZM430.506 101.659C426.839 101.659 423.688 100.909 421.051 99.4091C418.43 97.8939 416.407 95.7879 414.983 93.0909C413.574 90.3788 412.869 87.2348 412.869 83.6591C412.869 80.0682 413.574 76.9242 414.983 74.2273C416.407 71.5152 418.43 69.4091 421.051 67.9091C423.688 66.3939 426.839 65.6364 430.506 65.6364C434.172 65.6364 437.316 66.3939 439.938 67.9091C442.574 69.4091 444.597 71.5152 446.006 74.2273C447.43 76.9242 448.142 80.0682 448.142 83.6591C448.142 87.2348 447.43 90.3788 446.006 93.0909C444.597 95.7879 442.574 97.8939 439.938 99.4091C437.316 100.909 434.172 101.659 430.506 101.659ZM430.574 93.2727C431.907 93.2727 433.036 92.8636 433.96 92.0455C434.884 91.2273 435.589 90.0909 436.074 88.6364C436.574 87.1818 436.824 85.5 436.824 83.5909C436.824 81.6515 436.574 79.9545 436.074 78.5C435.589 77.0455 434.884 75.9091 433.96 75.0909C433.036 74.2727 431.907 73.8636 430.574 73.8636C429.195 73.8636 428.028 74.2727 427.074 75.0909C426.134 75.9091 425.415 77.0455 424.915 78.5C424.43 79.9545 424.188 81.6515 424.188 83.5909C424.188 85.5 424.43 87.1818 424.915 88.6364C425.415 90.0909 426.134 91.2273 427.074 92.0455C428.028 92.8636 429.195 93.2727 430.574 93.2727ZM453.835 114.091V66.0909H464.835V72.0682H465.176C465.631 71.0076 466.275 69.9848 467.108 69C467.956 68.0152 469.032 67.2121 470.335 66.5909C471.653 65.9545 473.229 65.6364 475.062 65.6364C477.487 65.6364 479.752 66.2727 481.858 67.5455C483.979 68.8182 485.691 70.7803 486.994 73.4318C488.297 76.0833 488.949 79.4621 488.949 83.5682C488.949 87.5227 488.32 90.8333 487.062 93.5C485.82 96.1667 484.138 98.1667 482.017 99.5C479.911 100.833 477.57 101.5 474.994 101.5C473.237 101.5 471.714 101.212 470.426 100.636C469.138 100.061 468.055 99.303 467.176 98.3636C466.312 97.4242 465.646 96.4167 465.176 95.3409H464.949V114.091H453.835ZM464.722 83.5455C464.722 85.4242 464.972 87.0606 465.472 88.4545C465.987 89.8485 466.722 90.9318 467.676 91.7045C468.646 92.4621 469.805 92.8409 471.153 92.8409C472.517 92.8409 473.676 92.4621 474.631 91.7045C475.585 90.9318 476.305 89.8485 476.79 88.4545C477.29 87.0606 477.54 85.4242 477.54 83.5455C477.54 81.6667 477.29 80.0379 476.79 78.6591C476.305 77.2803 475.585 76.2121 474.631 75.4545C473.691 74.697 472.532 74.3182 471.153 74.3182C469.79 74.3182 468.631 74.6894 467.676 75.4318C466.722 76.1742 465.987 77.2348 465.472 78.6136C464.972 79.9924 464.722 81.6364 464.722 83.5455ZM494.773 101V66.0909H505.886V101H494.773ZM500.341 62.0227C498.78 62.0227 497.439 61.5076 496.318 60.4773C495.197 59.4318 494.636 58.1742 494.636 56.7045C494.636 55.25 495.197 54.0076 496.318 52.9773C497.439 51.9318 498.78 51.4091 500.341 51.4091C501.917 51.4091 503.258 51.9318 504.364 52.9773C505.485 54.0076 506.045 55.25 506.045 56.7045C506.045 58.1742 505.485 59.4318 504.364 60.4773C503.258 61.5076 501.917 62.0227 500.341 62.0227ZM522.801 101.591C520.574 101.591 518.597 101.22 516.869 100.477C515.157 99.7197 513.801 98.5833 512.801 97.0682C511.816 95.5379 511.324 93.6212 511.324 91.3182C511.324 89.3788 511.665 87.7424 512.347 86.4091C513.028 85.0758 513.968 83.9924 515.165 83.1591C516.362 82.3258 517.741 81.697 519.301 81.2727C520.862 80.8333 522.528 80.5379 524.301 80.3864C526.286 80.2045 527.884 80.0152 529.097 79.8182C530.309 79.6061 531.188 79.3106 531.733 78.9318C532.294 78.5379 532.574 77.9848 532.574 77.2727V77.1591C532.574 75.9924 532.172 75.0909 531.369 74.4545C530.566 73.8182 529.483 73.5 528.119 73.5C526.65 73.5 525.468 73.8182 524.574 74.4545C523.68 75.0909 523.112 75.9697 522.869 77.0909L512.619 76.7273C512.922 74.6061 513.703 72.7121 514.96 71.0455C516.233 69.3636 517.975 68.0455 520.188 67.0909C522.415 66.1212 525.089 65.6364 528.21 65.6364C530.438 65.6364 532.491 65.9015 534.369 66.4318C536.248 66.947 537.884 67.7045 539.278 68.7045C540.672 69.6894 541.748 70.9015 542.506 72.3409C543.278 73.7803 543.665 75.4242 543.665 77.2727V101H533.21V96.1364H532.938C532.316 97.3182 531.521 98.3182 530.551 99.1364C529.597 99.9545 528.468 100.568 527.165 100.977C525.877 101.386 524.422 101.591 522.801 101.591ZM526.233 94.3182C527.43 94.3182 528.506 94.0758 529.46 93.5909C530.43 93.1061 531.203 92.4394 531.778 91.5909C532.354 90.7273 532.642 89.7273 532.642 88.5909V85.2727C532.324 85.4394 531.938 85.5909 531.483 85.7273C531.044 85.8636 530.559 85.9924 530.028 86.1136C529.498 86.2348 528.953 86.3409 528.392 86.4318C527.831 86.5227 527.294 86.6061 526.778 86.6818C525.733 86.8485 524.839 87.1061 524.097 87.4545C523.369 87.803 522.809 88.2576 522.415 88.8182C522.036 89.3636 521.847 90.0152 521.847 90.7727C521.847 91.9242 522.256 92.803 523.074 93.4091C523.907 94.0152 524.96 94.3182 526.233 94.3182Z" fill="#1F1F1F"/>
</svg>
